<?xml version="1.0" standalone="no"?>
<!DOCTYPE svg PUBLIC "-//W3C//DTD SVG 20010904//EN"
 "http://www.w3.org/TR/2001/REC-SVG-20010904/DTD/svg10.dtd">
<svg version="1.0" xmlns="http://www.w3.org/2000/svg"
 width="700.000000pt" height="700.000000pt" viewBox="0 0 700.000000 700.000000"
 preserveAspectRatio="xMidYMid meet">
<metadata>
Created by potrace 1.14, written by Peter Selinger 2001-2017
</metadata>
<g transform="translate(0.000000,700.000000) scale(0.100000,-0.100000)"
fill="#000000" stroke="none">
<path d="M895 6989 c-466 -60 -827 -427 -885 -899 -14 -117 -14 -5063 0 -5180
15 -124 45 -222 99 -335 154 -315 446 -521 801 -565 122 -15 5063 -14 5185 1
474 58 836 420 894 894 15 127 15 5063 0 5190 -28 226 -119 420 -273 582 -167
176 -377 282 -621 312 -111 14 -5093 13 -5200 0z m580 -674 c139 -36 236 -100
277 -183 l23 -47 3 -2560 c3 -2888 10 -2628 -77 -2715 -97 -97 -238 -144 -431
-144 -144 0 -217 16 -327 69 -87 43 -147 106 -168 178 -22 74 -23 5108 -1
5181 36 120 166 206 357 235 84 13 268 5 344 -14z m4573 -3 c127 -68 202 -225
202 -428 0 -207 -77 -367 -208 -431 l-57 -28 -592 -3 -593 -3 0 -2236 c0
-1709 -3 -2245 -12 -2276 -28 -94 -155 -187 -304 -223 -94 -23 -286 -24 -378
-1 -137 34 -247 105 -293 189 -17 31 -18 137 -21 2290 l-2 2257 -598 3 -597 3
-57 28 c-98 48 -162 145 -192 291 -54 258 43 517 216 577 51 18 122 18 1748
16 l1695 -2 43 -23z"/>
</g>
</svg>
